<svg xmlns="http://www.w3.org/2000/svg" viewBox="0 0 600 840" width="600" height="840" font-family="Bricolage Grotesque, Arial Black, Impact, sans-serif" font-weight="800" role="img" aria-label="Booster Box — Ondas do Novo Mundo (OP-10)"><defs>
<linearGradient id="gbooster-bo1" x1="0" y1="0" x2="1" y2="1"><stop offset="0" stop-color="#FF7A45"/><stop offset=".55" stop-color="#C9788F"/><stop offset="1" stop-color="#FFEBC8"/></linearGradient>
<linearGradient id="sbooster-bo1" x1="0" y1="1" x2="1" y2="0"><stop offset="0" stop-color="#FF4FD8"/><stop offset=".55" stop-color="#FF7A45"/><stop offset="1" stop-color="#FFD21F"/></linearGradient>
<linearGradient id="fbooster-bo1" x1="0" y1="0" x2="1" y2="1"><stop offset="0" stop-color="#fff" stop-opacity="0"/><stop offset=".5" stop-color="#fff" stop-opacity=".35"/><stop offset="1" stop-color="#fff" stop-opacity="0"/></linearGradient>
<radialGradient id="rbooster-bo1" cx=".5" cy=".4" r=".7"><stop offset="0" stop-color="#C9788F" stop-opacity=".55"/><stop offset="1" stop-color="#120A1E" stop-opacity="0"/></radialGradient>
</defs><rect width="600" height="840" fill="#120A1E"/><rect width="600" height="840" fill="url(#rbooster-bo1)"/><polygon points="220.0,197.0 220.8,198.9 222.9,199.1 221.3,200.4 221.8,202.4 220.0,201.3 218.2,202.4 218.7,200.4 217.1,199.1 219.2,198.9" fill="#FFEBC8" opacity="0.4"/><polygon points="549.0,542.0 550.3,545.2 553.8,545.5 551.1,547.7 551.9,551.0 549.0,549.2 546.1,551.0 546.9,547.7 544.2,545.5 547.7,545.2" fill="#FFEBC8" opacity="0.4"/><polygon points="384.0,660.0 385.6,663.8 389.7,664.1 386.6,666.8 387.5,670.9 384.0,668.7 380.5,670.9 381.4,666.8 378.3,664.1 382.4,663.8" fill="#FFEBC8" opacity="0.4"/><polygon points="155.0,554.0 156.9,558.5 161.7,558.8 158.0,562.0 159.1,566.7 155.0,564.1 150.9,566.7 152.0,562.0 148.3,558.8 153.1,558.5" fill="#FFEBC8" opacity="0.6"/><polygon points="471.0,293.0 473.1,298.1 478.6,298.5 474.4,302.1 475.7,307.5 471.0,304.6 466.3,307.5 467.6,302.1 463.4,298.5 468.9,298.1" fill="#FFEBC8" opacity="0.4"/><polygon points="300.0,442.0 301.9,446.5 306.7,446.8 303.0,450.0 304.1,454.7 300.0,452.1 295.9,454.7 297.0,450.0 293.3,446.8 298.1,446.5" fill="#FFEBC8" opacity="0.6"/><polygon points="162.0,726.0 162.8,727.9 164.9,728.1 163.3,729.4 163.8,731.4 162.0,730.4 160.2,731.4 160.7,729.4 159.1,728.1 161.2,727.9" fill="#FFEBC8" opacity="0.6"/><polygon points="231.0,87.0 233.4,92.7 239.6,93.2 234.9,97.3 236.3,103.3 231.0,100.0 225.7,103.3 227.1,97.3 222.4,93.2 228.6,92.7" fill="#FFEBC8" opacity="0.4"/><polygon points="531.0,668.0 532.9,672.5 537.7,672.8 534.0,676.0 535.1,680.7 531.0,678.1 526.9,680.7 528.0,676.0 524.3,672.8 529.1,672.5" fill="#FFEBC8" opacity="0.6"/><polygon points="73.0,195.0 73.8,196.9 75.9,197.1 74.3,198.4 74.8,200.4 73.0,199.3 71.2,200.4 71.7,198.4 70.1,197.1 72.2,196.9" fill="#FFEBC8" opacity="0.4"/><polygon points="223.0,284.0 225.1,289.1 230.6,289.5 226.4,293.1 227.7,298.5 223.0,295.6 218.3,298.5 219.6,293.1 215.4,289.5 220.9,289.1" fill="#FFEBC8" opacity="0.6"/><polygon points="499.0,247.0 500.6,250.8 504.7,251.1 501.6,253.8 502.5,257.9 499.0,255.7 495.5,257.9 496.4,253.8 493.3,251.1 497.4,250.8" fill="#FFEBC8" opacity="0.25"/><polygon points="500.0,400.0 501.9,404.5 506.7,404.8 503.0,408.0 504.1,412.7 500.0,410.1 495.9,412.7 497.0,408.0 493.3,404.8 498.1,404.5" fill="#FFEBC8" opacity="0.4"/><polygon points="181.0,341.0 182.3,344.2 185.8,344.5 183.1,346.7 183.9,350.0 181.0,348.2 178.1,350.0 178.9,346.7 176.2,344.5 179.7,344.2" fill="#FFEBC8" opacity="0.4"/><polygon points="453.0,654.0 454.6,657.8 458.7,658.1 455.6,660.8 456.5,664.9 453.0,662.7 449.5,664.9 450.4,660.8 447.3,658.1 451.4,657.8" fill="#FFEBC8" opacity="0.6"/><polygon points="108.0,771.0 109.1,773.5 111.8,773.8 109.7,775.6 110.4,778.2 108.0,776.8 105.6,778.2 106.3,775.6 104.2,773.8 106.9,773.5" fill="#FFEBC8" opacity="0.6"/><polygon points="344.0,711.0 345.3,714.2 348.8,714.5 346.1,716.7 346.9,720.0 344.0,718.2 341.1,720.0 341.9,716.7 339.2,714.5 342.7,714.2" fill="#FFEBC8" opacity="0.4"/><polygon points="375.0,224.0 377.4,229.7 383.6,230.2 378.9,234.3 380.3,240.3 375.0,237.1 369.7,240.3 371.1,234.3 366.4,230.2 372.6,229.7" fill="#FFEBC8" opacity="0.25"/><polygon points="247.0,688.0 249.4,693.7 255.6,694.2 250.9,698.3 252.3,704.3 247.0,701.0 241.7,704.3 243.1,698.3 238.4,694.2 244.6,693.7" fill="#FFEBC8" opacity="0.25"/><polygon points="175.0,499.0 176.3,502.2 179.8,502.5 177.1,504.7 177.9,508.0 175.0,506.2 172.1,508.0 172.9,504.7 170.2,502.5 173.7,502.2" fill="#FFEBC8" opacity="0.6"/><g transform="translate(0 120)"><polygon points="110,210 390,160 500,220 220,275" fill="#FFEBC8" opacity=".9"/><polygon points="220,275 500,220 500,480 220,540" fill="#1A0F24" opacity=".55"/><polygon points="220,275 500,220 500,480 220,540" fill="url(#gbooster-bo1)" opacity=".55"/><polygon points="110,210 220,275 220,540 110,470" fill="url(#gbooster-bo1)"/><rect x="0" y="0" width="600" height="840" fill="url(#fbooster-bo1)" opacity=".5"/><rect x="130" y="260" width="340" height="230" rx="16" fill="url(#gbooster-bo1)" stroke="#FFEBC8" stroke-width="5"/><polygon points="420.0,266.0 429.0,287.6 452.3,289.5 434.6,304.7 440.0,327.5 420.0,315.3 400.0,327.5 405.4,304.7 387.7,289.5 411.0,287.6" fill="url(#sbooster-bo1)" opacity="1"/><text x="150" y="295" font-size="17" fill="#1A0F24" letter-spacing="3">ONE PIECE</text><text x="303" y="363.0" font-size="32" fill="#1A0F24" text-anchor="middle">Ondas do Novo</text><text x="300" y="360.0" font-size="32" fill="#FFEBC8" text-anchor="middle">Ondas do Novo</text><text x="303" y="399.8" font-size="32" fill="#1A0F24" text-anchor="middle">Mundo (OP-10)</text><text x="300" y="396.8" font-size="32" fill="#FFEBC8" text-anchor="middle">Mundo (OP-10)</text><rect x="200" y="455" width="200" height="26" rx="13" fill="#1A0F24"/><text x="300" y="474" font-size="15" fill="#FFD21F" text-anchor="middle" letter-spacing="2">BOOSTER BOX</text></g></svg>