<svg xmlns="http://www.w3.org/2000/svg" viewBox="0 0 600 840" width="600" height="840" font-family="Bricolage Grotesque, Arial Black, Impact, sans-serif" font-weight="800" role="img" aria-label="Elite Trainer Box — Evoluções Prismáticas"><defs>
<linearGradient id="gelite-trai0" x1="0" y1="0" x2="1" y2="1"><stop offset="0" stop-color="#FFD21F"/><stop offset=".55" stop-color="#FF7A45"/><stop offset="1" stop-color="#7B4FF0"/></linearGradient>
<linearGradient id="selite-trai0" x1="0" y1="1" x2="1" y2="0"><stop offset="0" stop-color="#FF4FD8"/><stop offset=".55" stop-color="#FF7A45"/><stop offset="1" stop-color="#FFD21F"/></linearGradient>
<linearGradient id="felite-trai0" x1="0" y1="0" x2="1" y2="1"><stop offset="0" stop-color="#fff" stop-opacity="0"/><stop offset=".5" stop-color="#fff" stop-opacity=".35"/><stop offset="1" stop-color="#fff" stop-opacity="0"/></linearGradient>
<radialGradient id="relite-trai0" cx=".5" cy=".4" r=".7"><stop offset="0" stop-color="#FF7A45" stop-opacity=".55"/><stop offset="1" stop-color="#120A1E" stop-opacity="0"/></radialGradient>
</defs><rect width="600" height="840" fill="#120A1E"/><rect width="600" height="840" fill="url(#relite-trai0)"/><polygon points="161.0,399.0 162.1,401.5 164.8,401.8 162.7,403.6 163.4,406.2 161.0,404.8 158.6,406.2 159.3,403.6 157.2,401.8 159.9,401.5" fill="#FFEBC8" opacity="0.6"/><polygon points="439.0,324.0 440.1,326.5 442.8,326.8 440.7,328.6 441.4,331.2 439.0,329.8 436.6,331.2 437.3,328.6 435.2,326.8 437.9,326.5" fill="#FFEBC8" opacity="0.25"/><polygon points="236.0,21.0 236.8,22.9 238.9,23.1 237.3,24.4 237.8,26.4 236.0,25.4 234.2,26.4 234.7,24.4 233.1,23.1 235.2,22.9" fill="#FFEBC8" opacity="0.6"/><polygon points="52.0,493.0 53.1,495.5 55.8,495.8 53.7,497.6 54.4,500.2 52.0,498.8 49.6,500.2 50.3,497.6 48.2,495.8 50.9,495.5" fill="#FFEBC8" opacity="0.4"/><polygon points="297.0,107.0 297.8,108.9 299.9,109.1 298.3,110.4 298.8,112.4 297.0,111.3 295.2,112.4 295.7,110.4 294.1,109.1 296.2,108.9" fill="#FFEBC8" opacity="0.6"/><polygon points="330.0,242.0 331.1,244.5 333.8,244.8 331.7,246.6 332.4,249.2 330.0,247.8 327.6,249.2 328.3,246.6 326.2,244.8 328.9,244.5" fill="#FFEBC8" opacity="0.25"/><polygon points="317.0,776.0 318.1,778.5 320.8,778.8 318.7,780.6 319.4,783.2 317.0,781.8 314.6,783.2 315.3,780.6 313.2,778.8 315.9,778.5" fill="#FFEBC8" opacity="0.4"/><polygon points="34.0,689.0 35.3,692.2 38.8,692.5 36.1,694.7 36.9,698.0 34.0,696.2 31.1,698.0 31.9,694.7 29.2,692.5 32.7,692.2" fill="#FFEBC8" opacity="0.4"/><polygon points="471.0,770.0 472.3,773.2 475.8,773.5 473.1,775.7 473.9,779.0 471.0,777.2 468.1,779.0 468.9,775.7 466.2,773.5 469.7,773.2" fill="#FFEBC8" opacity="0.25"/><polygon points="28.0,337.0 29.6,340.8 33.7,341.1 30.6,343.8 31.5,347.9 28.0,345.7 24.5,347.9 25.4,343.8 22.3,341.1 26.4,340.8" fill="#FFEBC8" opacity="0.25"/><polygon points="386.0,775.0 388.1,780.1 393.6,780.5 389.4,784.1 390.7,789.5 386.0,786.6 381.3,789.5 382.6,784.1 378.4,780.5 383.9,780.1" fill="#FFEBC8" opacity="0.6"/><polygon points="525.0,536.0 526.1,538.5 528.8,538.8 526.7,540.6 527.4,543.2 525.0,541.8 522.6,543.2 523.3,540.6 521.2,538.8 523.9,538.5" fill="#FFEBC8" opacity="0.4"/><polygon points="159.0,708.0 161.4,713.7 167.6,714.2 162.9,718.3 164.3,724.3 159.0,721.0 153.7,724.3 155.1,718.3 150.4,714.2 156.6,713.7" fill="#FFEBC8" opacity="0.25"/><polygon points="356.0,476.0 357.6,479.8 361.7,480.1 358.6,482.8 359.5,486.9 356.0,484.7 352.5,486.9 353.4,482.8 350.3,480.1 354.4,479.8" fill="#FFEBC8" opacity="0.4"/><polygon points="189.0,515.0 190.1,517.5 192.8,517.8 190.7,519.6 191.4,522.2 189.0,520.8 186.6,522.2 187.3,519.6 185.2,517.8 187.9,517.5" fill="#FFEBC8" opacity="0.4"/><polygon points="301.0,25.0 302.1,27.5 304.8,27.8 302.7,29.6 303.4,32.2 301.0,30.8 298.6,32.2 299.3,29.6 297.2,27.8 299.9,27.5" fill="#FFEBC8" opacity="0.4"/><polygon points="196.0,72.0 196.8,73.9 198.9,74.1 197.3,75.4 197.8,77.4 196.0,76.3 194.2,77.4 194.7,75.4 193.1,74.1 195.2,73.9" fill="#FFEBC8" opacity="0.25"/><polygon points="391.0,499.0 392.9,503.5 397.7,503.8 394.0,507.0 395.1,511.7 391.0,509.1 386.9,511.7 388.0,507.0 384.3,503.8 389.1,503.5" fill="#FFEBC8" opacity="0.4"/><polygon points="138.0,380.0 140.4,385.7 146.6,386.2 141.9,390.3 143.3,396.3 138.0,393.1 132.7,396.3 134.1,390.3 129.4,386.2 135.6,385.7" fill="#FFEBC8" opacity="0.25"/><polygon points="410.0,241.0 410.8,242.9 412.9,243.1 411.3,244.4 411.8,246.4 410.0,245.3 408.2,246.4 408.7,244.4 407.1,243.1 409.2,242.9" fill="#FFEBC8" opacity="0.25"/><g transform="translate(0 120)"><polygon points="110,190 390,140 500,200 220,255" fill="#7B4FF0" opacity=".9"/><polygon points="220,255 500,200 500,460 220,520" fill="#1A0F24" opacity=".55"/><polygon points="220,255 500,200 500,460 220,520" fill="url(#gelite-trai0)" opacity=".55"/><polygon points="110,190 220,255 220,520 110,450" fill="url(#gelite-trai0)"/><rect x="0" y="0" width="600" height="840" fill="url(#felite-trai0)" opacity=".5"/><rect x="130" y="240" width="340" height="230" rx="16" fill="url(#gelite-trai0)" stroke="#FFEBC8" stroke-width="5"/><polygon points="420.0,246.0 429.0,267.6 452.3,269.5 434.6,284.7 440.0,307.5 420.0,295.3 400.0,307.5 405.4,284.7 387.7,269.5 411.0,267.6" fill="url(#selite-trai0)" opacity="1"/><text x="150" y="275" font-size="17" fill="#1A0F24" letter-spacing="3">POKÉMON TCG</text><text x="303" y="343.0" font-size="32" fill="#1A0F24" text-anchor="middle">Evoluções</text><text x="300" y="340.0" font-size="32" fill="#FFEBC8" text-anchor="middle">Evoluções</text><text x="303" y="379.8" font-size="32" fill="#1A0F24" text-anchor="middle">Prismáticas</text><text x="300" y="376.8" font-size="32" fill="#FFEBC8" text-anchor="middle">Prismáticas</text><rect x="200" y="435" width="200" height="26" rx="13" fill="#1A0F24"/><text x="300" y="454" font-size="15" fill="#FFD21F" text-anchor="middle" letter-spacing="2">ELITE TRAINER BOX</text></g></svg>