<svg xmlns="http://www.w3.org/2000/svg" viewBox="0 0 600 840" width="600" height="840" font-family="Bricolage Grotesque, Arial Black, Impact, sans-serif" font-weight="800" role="img" aria-label="Starter Deck — Tripulação Vermelha"><defs>
<linearGradient id="gstarter-de0" x1="0" y1="0" x2="1" y2="1"><stop offset="0" stop-color="#FF7A45"/><stop offset=".55" stop-color="#C9788F"/><stop offset="1" stop-color="#FFEBC8"/></linearGradient>
<linearGradient id="sstarter-de0" x1="0" y1="1" x2="1" y2="0"><stop offset="0" stop-color="#FF4FD8"/><stop offset=".55" stop-color="#FF7A45"/><stop offset="1" stop-color="#FFD21F"/></linearGradient>
<linearGradient id="fstarter-de0" x1="0" y1="0" x2="1" y2="1"><stop offset="0" stop-color="#fff" stop-opacity="0"/><stop offset=".5" stop-color="#fff" stop-opacity=".35"/><stop offset="1" stop-color="#fff" stop-opacity="0"/></linearGradient>
<radialGradient id="rstarter-de0" cx=".5" cy=".4" r=".7"><stop offset="0" stop-color="#C9788F" stop-opacity=".55"/><stop offset="1" stop-color="#120A1E" stop-opacity="0"/></radialGradient>
</defs><rect width="600" height="840" fill="#120A1E"/><rect width="600" height="840" fill="url(#rstarter-de0)"/><polygon points="217.0,758.0 219.1,763.1 224.6,763.5 220.4,767.1 221.7,772.5 217.0,769.6 212.3,772.5 213.6,767.1 209.4,763.5 214.9,763.1" fill="#FFEBC8" opacity="0.4"/><polygon points="259.0,675.0 259.8,676.9 261.9,677.1 260.3,678.4 260.8,680.4 259.0,679.4 257.2,680.4 257.7,678.4 256.1,677.1 258.2,676.9" fill="#FFEBC8" opacity="0.25"/><polygon points="254.0,131.0 256.4,136.7 262.6,137.2 257.9,141.3 259.3,147.3 254.0,144.1 248.7,147.3 250.1,141.3 245.4,137.2 251.6,136.7" fill="#FFEBC8" opacity="0.25"/><polygon points="538.0,597.0 539.1,599.5 541.8,599.8 539.7,601.6 540.4,604.2 538.0,602.8 535.6,604.2 536.3,601.6 534.2,599.8 536.9,599.5" fill="#FFEBC8" opacity="0.6"/><polygon points="81.0,404.0 82.6,407.8 86.7,408.1 83.6,410.8 84.5,414.9 81.0,412.7 77.5,414.9 78.4,410.8 75.3,408.1 79.4,407.8" fill="#FFEBC8" opacity="0.25"/><polygon points="44.0,704.0 45.9,708.5 50.7,708.8 47.0,712.0 48.1,716.7 44.0,714.1 39.9,716.7 41.0,712.0 37.3,708.8 42.1,708.5" fill="#FFEBC8" opacity="0.6"/><polygon points="214.0,389.0 216.4,394.7 222.6,395.2 217.9,399.3 219.3,405.3 214.0,402.1 208.7,405.3 210.1,399.3 205.4,395.2 211.6,394.7" fill="#FFEBC8" opacity="0.25"/><polygon points="184.0,449.0 186.1,454.1 191.6,454.5 187.4,458.1 188.7,463.5 184.0,460.6 179.3,463.5 180.6,458.1 176.4,454.5 181.9,454.1" fill="#FFEBC8" opacity="0.25"/><polygon points="234.0,701.0 235.1,703.5 237.8,703.8 235.7,705.6 236.4,708.2 234.0,706.8 231.6,708.2 232.3,705.6 230.2,703.8 232.9,703.5" fill="#FFEBC8" opacity="0.25"/><polygon points="458.0,700.0 458.8,701.9 460.9,702.1 459.3,703.4 459.8,705.4 458.0,704.4 456.2,705.4 456.7,703.4 455.1,702.1 457.2,701.9" fill="#FFEBC8" opacity="0.25"/><polygon points="368.0,186.0 370.4,191.7 376.6,192.2 371.9,196.3 373.3,202.3 368.0,199.1 362.7,202.3 364.1,196.3 359.4,192.2 365.6,191.7" fill="#FFEBC8" opacity="0.25"/><polygon points="311.0,27.0 312.6,30.8 316.7,31.1 313.6,33.8 314.5,37.9 311.0,35.7 307.5,37.9 308.4,33.8 305.3,31.1 309.4,30.8" fill="#FFEBC8" opacity="0.25"/><polygon points="343.0,794.0 344.1,796.5 346.8,796.8 344.7,798.6 345.4,801.2 343.0,799.8 340.6,801.2 341.3,798.6 339.2,796.8 341.9,796.5" fill="#FFEBC8" opacity="0.25"/><polygon points="189.0,433.0 191.4,438.7 197.6,439.2 192.9,443.3 194.3,449.3 189.0,446.1 183.7,449.3 185.1,443.3 180.4,439.2 186.6,438.7" fill="#FFEBC8" opacity="0.25"/><polygon points="222.0,578.0 223.9,582.5 228.7,582.8 225.0,586.0 226.1,590.7 222.0,588.1 217.9,590.7 219.0,586.0 215.3,582.8 220.1,582.5" fill="#FFEBC8" opacity="0.6"/><polygon points="328.0,74.0 329.6,77.8 333.7,78.1 330.6,80.8 331.5,84.9 328.0,82.7 324.5,84.9 325.4,80.8 322.3,78.1 326.4,77.8" fill="#FFEBC8" opacity="0.6"/><polygon points="231.0,374.0 233.1,379.1 238.6,379.5 234.4,383.1 235.7,388.5 231.0,385.6 226.3,388.5 227.6,383.1 223.4,379.5 228.9,379.1" fill="#FFEBC8" opacity="0.25"/><polygon points="326.0,247.0 327.1,249.5 329.8,249.8 327.7,251.6 328.4,254.2 326.0,252.8 323.6,254.2 324.3,251.6 322.2,249.8 324.9,249.5" fill="#FFEBC8" opacity="0.25"/><polygon points="492.0,315.0 493.6,318.8 497.7,319.1 494.6,321.8 495.5,325.9 492.0,323.7 488.5,325.9 489.4,321.8 486.3,319.1 490.4,318.8" fill="#FFEBC8" opacity="0.6"/><polygon points="504.0,492.0 505.3,495.2 508.8,495.5 506.1,497.7 506.9,501.0 504.0,499.2 501.1,501.0 501.9,497.7 499.2,495.5 502.7,495.2" fill="#FFEBC8" opacity="0.6"/><g transform="translate(0 120)"><rect x="190" y="90.0" width="280" height="400" rx="18" fill="url(#gstarter-de0)" opacity="0.5"/><rect x="170" y="100.0" width="280" height="400" rx="18" fill="url(#gstarter-de0)" opacity="0.75"/><rect x="150" y="120" width="290" height="400" rx="18" fill="url(#gstarter-de0)" stroke="#FFEBC8" stroke-width="5"/><rect x="150" y="120" width="290" height="80" rx="18" fill="#1A0F24" opacity=".45"/><text x="295" y="170" font-size="18" fill="#FFEBC8" text-anchor="middle" letter-spacing="3">ONE PIECE</text><polygon points="295.0,220.0 310.9,258.2 352.1,261.5 320.7,288.3 330.3,328.5 295.0,307.0 259.7,328.5 269.3,288.3 237.9,261.5 279.1,258.2" fill="url(#sstarter-de0)" opacity="1"/><text x="298" y="393.0" font-size="28" fill="#1A0F24" text-anchor="middle">Tripulação</text><text x="295" y="390.0" font-size="28" fill="#FFEBC8" text-anchor="middle">Tripulação</text><text x="298" y="425.2" font-size="28" fill="#1A0F24" text-anchor="middle">Vermelha</text><text x="295" y="422.2" font-size="28" fill="#FFEBC8" text-anchor="middle">Vermelha</text><text x="295" y="495" font-size="15" fill="#1A0F24" text-anchor="middle" letter-spacing="3">DECK</text></g></svg>